<?xml version="1.0" encoding="utf-8"?>
<!-- Generator: Adobe Illustrator 18.1.1, SVG Export Plug-In . SVG Version: 6.00 Build 0)  -->
<!DOCTYPE svg PUBLIC "-//W3C//DTD SVG 1.1//EN" "http://www.w3.org/Graphics/SVG/1.1/DTD/svg11.dtd">
<svg version="1.1" id="Layer_1" xmlns="http://www.w3.org/2000/svg" xmlns:xlink="http://www.w3.org/1999/xlink" x="0px" y="0px"
	 viewBox="0 0 140 140" enable-background="new 0 0 140 140" xml:space="preserve">
<circle fill="#FFFFFF" cx="70" cy="70" r="70"/>
<g>
	<path fill="#FBBC05" d="M47.7,69.8c0-2.6,0.4-5.1,1.2-7.4l-13-10.1c-2.7,5.3-4.2,11.2-4.2,17.5s1.5,12.3,4.2,17.5l13-10.1
		C48.1,74.9,47.7,72.4,47.7,69.8z"/>
	<path fill="#4285F4" d="M70.8,62.8v14.8h21c-0.5,3.7-2.8,8.6-7.8,12l12.6,9.8c7.4-6.8,11.6-16.9,11.6-28.7c0-3.2-0.4-5.5-0.9-7.9
		H70.8z"/>
	<path fill="#34A853" d="M70.8,93.3c-10.2,0-18.8-6.9-21.9-16.1l-13,10.1c6.4,12.8,19.6,21.5,34.9,21.5c10.5,0,19.4-3.5,25.9-9.4
		L84,89.6C80.8,91.8,76.5,93.3,70.8,93.3z"/>
	<path fill="#EA4335" d="M70.8,30.8c-15.3,0-28.5,8.8-34.9,21.5l13,10.1c3.1-9.2,11.7-16.1,21.9-16.1c7.5,0,12.3,3.3,14.8,5.7
		l11.3-11C90.1,34.6,81.3,30.8,70.8,30.8z"/>
</g>
</svg>