<?xml version="1.0" encoding="utf-8"?>
<!-- Generator: Adobe Illustrator 15.1.0, SVG Export Plug-In . SVG Version: 6.00 Build 0)  -->
<!DOCTYPE svg PUBLIC "-//W3C//DTD SVG 1.1//EN" "http://www.w3.org/Graphics/SVG/1.1/DTD/svg11.dtd">
<svg version="1.1" id="Layer_1" xmlns="http://www.w3.org/2000/svg" xmlns:xlink="http://www.w3.org/1999/xlink" x="0px" y="0px"
	 viewBox="0 0 595.28 841.89" enable-background="new 0 0 595.28 841.89" xml:space="preserve">
<g>
	<path fill-rule="evenodd" clip-rule="evenodd" fill="#BCF1ED" d="M445.01,158.041c0.548-2.403,4.436-1.469,7.084-1.771
		c0,0.591,0,1.181,0,1.771C449.733,158.041,447.371,158.041,445.01,158.041z"/>
	<path fill-rule="evenodd" clip-rule="evenodd" fill="#78E4DB" d="M452.094,158.041c0-0.59,0-1.18,0-1.771c1.773,0,3.543,0,5.313,0
		c0,0.591,0,1.181,0,1.771C455.637,158.041,453.867,158.041,452.094,158.041z"/>
	<path fill-rule="evenodd" clip-rule="evenodd" fill="#BCF1ED" d="M457.407,158.041c0-0.59,0-1.18,0-1.771
		c2.806,0.148,6.756-0.851,7.085,1.771C462.131,158.041,459.77,158.041,457.407,158.041z"/>
	<path fill-rule="evenodd" clip-rule="evenodd" fill="#BCF1ED" d="M450.324,182.837c0-0.59,0-1.18,0-1.771c3.54,0,7.083,0,10.626,0
		c0,0.591,0,1.181,0,1.771C457.407,182.837,453.864,182.837,450.324,182.837z"/>
	<path fill-rule="evenodd" clip-rule="evenodd" fill="#3CD8CB" d="M388.332,212.947c0.592,0,1.182,0,1.772,0
		c-0.397,1.375-0.05,3.494-1.772,3.542C388.332,215.309,388.332,214.128,388.332,212.947z"/>
	<path fill-rule="evenodd" clip-rule="evenodd" fill="#BCF1ED" d="M388.332,220.032c0,1.771,0,3.542,0,5.313c-0.59,0-1.181,0-1.77,0
		C386.408,222.832,386.27,220.33,388.332,220.032z"/>
	<path fill-rule="evenodd" clip-rule="evenodd" fill="#3CD8CB" d="M416.672,221.803c0,2.361,0,4.723,0,7.085
		c-0.591,0-1.181,0-1.772,0C415.203,226.237,414.267,222.351,416.672,221.803z"/>
	<path fill-rule="evenodd" clip-rule="evenodd" fill="#78E4DB" d="M386.562,225.345c0.589,0,1.18,0,1.77,0c0,3.543,0,7.084,0,10.627
		c-0.59,0-1.181,0-1.77,0C386.562,232.43,386.562,228.888,386.562,225.345z"/>
	<path fill-rule="evenodd" clip-rule="evenodd" fill="#78E4DB" d="M414.899,228.888c0.592,0,1.182,0,1.772,0
		c0,5.314,0,10.626,0,15.94c-0.591,0-1.181,0-1.772,0C414.899,239.514,414.899,234.202,414.899,228.888z"/>
	<path fill-rule="evenodd" clip-rule="evenodd" fill="#3CD8CB" d="M386.562,235.972c0.589,0,1.18,0,1.77,0
		c0,11.218,0,22.435,0,33.652c-0.59,0-1.181,0-1.77,0C386.562,258.407,386.562,247.19,386.562,235.972z"/>
	<path fill-rule="evenodd" clip-rule="evenodd" fill="#BCF1ED" d="M414.899,244.828c0.592,0,1.182,0,1.772,0
		c0,5.313,0,10.627,0,15.941c-0.591,0-1.181,0-1.772,0C414.899,255.456,414.899,250.142,414.899,244.828z"/>
	<path fill-rule="evenodd" clip-rule="evenodd" fill="#78E4DB" d="M521.17,246.599c4.106,8.292,0.61,24.186,1.772,35.424
		c-0.591,0-1.181,0-1.772,0C521.17,270.215,521.17,258.407,521.17,246.599z"/>
	<path fill-rule="evenodd" clip-rule="evenodd" fill="#78E4DB" d="M414.899,260.77c0.592,0,1.182,0,1.772,0
		c0,5.312,0,10.626,0,15.94c-0.591,0-1.181,0-1.772,0C414.899,271.396,414.899,266.082,414.899,260.77z"/>
	<path fill-rule="evenodd" clip-rule="evenodd" fill="#78E4DB" d="M97.86,271.396c0.285-2.075,3.229-1.494,5.313-1.771
		c0,0.591,0,1.181,0,1.771C101.403,271.396,99.631,271.396,97.86,271.396z"/>
	<path fill-rule="evenodd" clip-rule="evenodd" fill="#BCF1ED" d="M103.173,271.396c0-0.59,0-1.18,0-1.771
		c24.797,0,49.593,0,74.39,0c0,0.591,0,1.181,0,1.771C152.767,271.396,127.97,271.396,103.173,271.396z"/>
	<path fill-rule="evenodd" clip-rule="evenodd" fill="#78E4DB" d="M177.563,271.396c0-0.59,0-1.18,0-1.771c4.723,0,9.446,0,14.169,0
		c0,0.591,0,1.181,0,1.771C187.009,271.396,182.286,271.396,177.563,271.396z"/>
	<path fill-rule="evenodd" clip-rule="evenodd" fill="#3CD8CB" d="M191.732,271.396c0-0.59,0-1.18,0-1.771c5.313,0,10.627,0,15.94,0
		C205.788,273.644,196.539,270.299,191.732,271.396z"/>
	<path fill-rule="evenodd" clip-rule="evenodd" fill="#3CD8CB" d="M250.182,269.625c1.77,0,3.542,0,5.312,0c0,0.591,0,1.181,0,1.771
		C253.411,271.119,250.467,271.7,250.182,269.625z"/>
	<path fill-rule="evenodd" clip-rule="evenodd" fill="#78E4DB" d="M255.494,271.396c0-0.59,0-1.18,0-1.771c1.181,0,2.361,0,3.542,0
		c0,0.591,0,1.181,0,1.771C257.855,271.396,256.675,271.396,255.494,271.396z"/>
	<path fill-rule="evenodd" clip-rule="evenodd" fill="#BCF1ED" d="M259.037,271.396c0-0.59,0-1.18,0-1.771
		c2.06-0.288,3.151,0.392,3.542,1.771C261.398,271.396,260.218,271.396,259.037,271.396z"/>
	<path fill-rule="evenodd" clip-rule="evenodd" fill="#78E4DB" d="M386.562,269.625c0.589,0,1.18,0,1.77,0c0,3.542,0,7.085,0,10.627
		c-0.59,0-1.181,0-1.77,0C386.562,276.709,386.562,273.167,386.562,269.625z"/>
	<path fill-rule="evenodd" clip-rule="evenodd" fill="#BCF1ED" d="M492.832,269.625c3.841-0.298,0.803,6.282,1.77,8.856
		c-0.589,0-1.181,0-1.77,0C492.832,275.529,492.832,272.577,492.832,269.625z"/>
	<path fill-rule="evenodd" clip-rule="evenodd" fill="#BCF1ED" d="M97.86,287.337c-2.928-1.346-2.928-14.596,0-15.941
		C97.86,276.709,97.86,282.023,97.86,287.337z"/>
	<path fill-rule="evenodd" clip-rule="evenodd" fill="#3CD8CB" d="M414.899,276.709c0.592,0,1.182,0,1.772,0
		c0,2.362,0,4.724,0,7.085C414.049,283.465,415.047,279.514,414.899,276.709z"/>
	<path fill-rule="evenodd" clip-rule="evenodd" fill="#78E4DB" d="M492.832,278.481c0.589,0,1.181,0,1.77,0c0,2.361,0,4.723,0,7.085
		c-0.589,0-1.181,0-1.77,0C492.832,283.204,492.832,280.842,492.832,278.481z"/>
	<path fill-rule="evenodd" clip-rule="evenodd" fill="#BCF1ED" d="M386.562,280.252c0.589,0,1.18,0,1.77,0c0,1.771,0,3.542,0,5.314
		C386.257,285.279,386.838,282.336,386.562,280.252z"/>
	<path fill-rule="evenodd" clip-rule="evenodd" fill="#BCF1ED" d="M521.17,282.023c0.592,0,1.182,0,1.772,0
		c0.151,2.514,0.292,5.015-1.772,5.313C521.17,285.564,521.17,283.794,521.17,282.023z"/>
	<path fill-rule="evenodd" clip-rule="evenodd" fill="#3CD8CB" d="M492.832,285.566c0.589,0,1.181,0,1.77,0
		c-0.395,1.374-0.048,3.493-1.77,3.541C492.832,287.927,492.832,286.746,492.832,285.566z"/>
	<path fill-rule="evenodd" clip-rule="evenodd" fill="#3CD8CB" d="M388.332,289.107c1.381,0.392,2.059,1.484,1.772,3.542
		c-0.591,0-1.181,0-1.772,0C388.332,291.469,388.332,290.288,388.332,289.107z"/>
	<path fill-rule="evenodd" clip-rule="evenodd" fill="#BCF1ED" d="M119.114,290.878c1.375,0.397,3.494,0.048,3.542,1.771
		C120.598,292.938,119.505,292.259,119.114,290.878z"/>
	<path fill-rule="evenodd" clip-rule="evenodd" fill="#3CD8CB" d="M182.877,296.192c0.048-1.722,2.168-1.374,3.542-1.771
		c0,0.591,0,1.181,0,1.771c-0.59,0-1.181,0-1.771,0C184.057,296.192,183.467,296.192,182.877,296.192z"/>
	<path fill-rule="evenodd" clip-rule="evenodd" fill="#78E4DB" d="M186.419,296.192c0-0.59,0-1.18,0-1.771c2.362,0,4.723,0,7.084,0
		c0,0.591,0,1.181,0,1.771C191.142,296.192,188.781,296.192,186.419,296.192z"/>
	<path fill-rule="evenodd" clip-rule="evenodd" fill="#BCF1ED" d="M193.503,296.192c0-0.59,0-1.18,0-1.771c14.76,0,29.52,0,44.279,0
		c0,0.591,0,1.181,0,1.771C223.023,296.192,208.263,296.192,193.503,296.192z"/>
	<path fill-rule="evenodd" clip-rule="evenodd" fill="#78E4DB" d="M237.783,296.192c0-0.59,0-1.18,0-1.771c1.181,0,2.362,0,3.542,0
		c0,0.591,0,1.181,0,1.771C240.145,296.192,238.963,296.192,237.783,296.192z"/>
	<path fill-rule="evenodd" clip-rule="evenodd" fill="#3CD8CB" d="M241.325,296.192c0-0.59,0-1.18,0-1.771
		c2.06-0.289,3.151,0.392,3.542,1.771C243.687,296.192,242.506,296.192,241.325,296.192z"/>
	<path fill-rule="evenodd" clip-rule="evenodd" fill="#BCF1ED" d="M182.877,296.192c0.59,0,1.18,0,1.771,0
		c0,45.461,0,90.921,0,136.381c-0.591,0-1.181,0-1.771,0C182.877,387.113,182.877,341.653,182.877,296.192z"/>
	<path fill-rule="evenodd" clip-rule="evenodd" fill="#3CD8CB" d="M445.01,320.988c1.181,0,2.361,0,3.542,0c0,0.591,0,1.181,0,1.771
		C447.177,322.362,445.059,322.711,445.01,320.988z"/>
	<path fill-rule="evenodd" clip-rule="evenodd" fill="#78E4DB" d="M448.552,322.76c0-0.59,0-1.181,0-1.771c1.182,0,2.362,0,3.542,0
		c0,0.591,0,1.181,0,1.771C450.914,322.76,449.733,322.76,448.552,322.76z"/>
	<path fill-rule="evenodd" clip-rule="evenodd" fill="#BCF1ED" d="M452.094,322.76c0-0.59,0-1.181,0-1.771c1.773,0,3.543,0,5.313,0
		c0,0.591,0,1.181,0,1.771C455.637,322.76,453.867,322.76,452.094,322.76z"/>
	<path fill-rule="evenodd" clip-rule="evenodd" fill="#3CD8CB" d="M140.368,326.302c2.952,73.209,2.952,158.814,0,232.023
		C140.368,480.984,140.368,403.643,140.368,326.302z"/>
	<path fill-rule="evenodd" clip-rule="evenodd" fill="#78E4DB" d="M345.824,342.243c1.722,0.049,1.375,2.168,1.771,3.542
		c-0.59,0-1.181,0-1.771,0C345.824,344.604,345.824,343.423,345.824,342.243z"/>
	<path fill-rule="evenodd" clip-rule="evenodd" fill="#3CD8CB" d="M345.824,345.785c0.59,0,1.181,0,1.771,0c0,1.181,0,2.362,0,3.542
		C346.215,348.936,345.536,347.844,345.824,345.785z"/>
	<path fill-rule="evenodd" clip-rule="evenodd" fill="#BCF1ED" d="M462.722,347.556c-1.345,2.928-14.596,2.928-15.939,0
		C452.094,347.556,457.407,347.556,462.722,347.556z"/>
	<path fill-rule="evenodd" clip-rule="evenodd" fill="#3CD8CB" d="M299.774,349.327c2.075,0.286,1.494,3.229,1.771,5.313
		c-0.592,0-1.183,0-1.771,0C299.774,352.87,299.774,351.098,299.774,349.327z"/>
	<path fill-rule="evenodd" clip-rule="evenodd" fill="#78E4DB" d="M299.774,354.641c0.589,0,1.18,0,1.771,0
		c0,5.314,0,10.627,0,15.941c-0.592,0-1.183,0-1.771,0C299.774,365.268,299.774,359.955,299.774,354.641z"/>
	<path fill-rule="evenodd" clip-rule="evenodd" fill="#BCF1ED" d="M347.595,358.183c2.228,0.438,1.786,3.522,0,3.542
		C347.595,360.545,347.595,359.364,347.595,358.183z"/>
	<path fill-rule="evenodd" clip-rule="evenodd" fill="#3CD8CB" d="M347.595,368.81c0,1.181,0,2.361,0,3.542c-0.59,0-1.181,0-1.771,0
		C346.222,370.979,345.872,368.859,347.595,368.81z"/>
	<path fill-rule="evenodd" clip-rule="evenodd" fill="#3CD8CB" d="M299.774,370.582c0.589,0,1.18,0,1.771,0
		c0.287,2.059-0.392,3.151-1.771,3.542C299.774,372.943,299.774,371.762,299.774,370.582z"/>
	<path fill-rule="evenodd" clip-rule="evenodd" fill="#78E4DB" d="M182.877,432.573c0.59,0,1.18,0,1.771,0c0.59,0,1.181,0,1.771,0
		c0,0.59,0,1.181,0,1.771C184.359,434.631,183.268,433.954,182.877,432.573z"/>
	<path fill-rule="evenodd" clip-rule="evenodd" fill="#BCF1ED" d="M186.419,434.344c0-0.591,0-1.182,0-1.771
		c2.514-0.151,5.016-0.293,5.313,1.771C189.961,434.344,188.19,434.344,186.419,434.344z"/>
	<path fill-rule="evenodd" clip-rule="evenodd" fill="#3CD8CB" d="M198.817,434.344c4.723,0,9.446,0,14.17,0c0,0.59,0,1.18,0,1.771
		C208.751,435.036,200.136,438.338,198.817,434.344z"/>
	<path fill-rule="evenodd" clip-rule="evenodd" fill="#78E4DB" d="M212.987,436.116c0-0.592,0-1.182,0-1.771
		c4.723,0,9.446,0,14.169,0c0,0.59,0,1.18,0,1.771C222.433,436.116,217.709,436.116,212.987,436.116z"/>
	<path fill-rule="evenodd" clip-rule="evenodd" fill="#3CD8CB" d="M227.156,436.116c0-0.592,0-1.182,0-1.771
		c2.361,0,4.723,0,7.084,0C233.693,436.748,229.806,435.814,227.156,436.116z"/>
	<path fill-rule="evenodd" clip-rule="evenodd" fill="#BCF1ED" d="M191.732,459.14c0,0.589,0,1.181,0,1.772
		c-11.031-2.988-6.736,10.604-7.084,21.252c-0.675,20.585,0.521,58.345,0,76.161c-0.591,0-1.181,0-1.771,0
		c0-11.339,0-29.362,0-49.594c0-16.645-4.115-43.461,1.771-49.592C185.78,457.96,190.312,460.044,191.732,459.14z"/>
	<path fill-rule="evenodd" clip-rule="evenodd" fill="#78E4DB" d="M191.732,460.913c0-0.592,0-1.184,0-1.772
		c5.903,0,11.808,0,17.712,0c0,0.589,0,1.181,0,1.772C203.54,460.913,197.635,460.913,191.732,460.913z"/>
	<path fill-rule="evenodd" clip-rule="evenodd" fill="#3CD8CB" d="M209.444,460.913c0-0.592,0-1.184,0-1.772
		c4.807,1.097,14.056-2.249,15.94,1.772C220.071,460.913,214.758,460.913,209.444,460.913z"/>
	<path fill-rule="evenodd" clip-rule="evenodd" fill="#78E4DB" d="M182.877,558.326c0.59,0,1.18,0,1.771,0c0,2.361,0,4.723,0,7.084
		c-0.591,0-1.181,0-1.771,0C182.877,563.048,182.877,560.687,182.877,558.326z"/>
	<path fill-rule="evenodd" clip-rule="evenodd" fill="#3CD8CB" d="M182.877,565.41c0.59,0,1.18,0,1.771,0c0,1.182,0,2.362,0,3.542
		C183.268,568.562,182.588,567.47,182.877,565.41z"/>
	<path fill-rule="evenodd" clip-rule="evenodd" fill="#3CD8CB" d="M138.597,570.725c0.59,0,1.181,0,1.771,0
		c-0.396,1.374-0.049,3.491-1.771,3.541C138.597,573.084,138.597,571.905,138.597,570.725z"/>
	<path fill-rule="evenodd" clip-rule="evenodd" fill="#3CD8CB" d="M204.13,593.75c1.181,0,2.362,0,3.542,0c0,0.589,0,1.18,0,1.77
		C206.298,595.125,204.179,595.472,204.13,593.75z"/>
	<path fill-rule="evenodd" clip-rule="evenodd" fill="#78E4DB" d="M207.673,595.52c0-0.59,0-1.181,0-1.77c1.181,0,2.362,0,3.542,0
		c0,0.589,0,1.18,0,1.77C210.035,595.52,208.854,595.52,207.673,595.52z"/>
	<path fill-rule="evenodd" clip-rule="evenodd" fill="#BCF1ED" d="M211.215,595.52c0-0.59,0-1.181,0-1.77
		c2.06-0.289,3.151,0.391,3.542,1.77C213.577,595.52,212.396,595.52,211.215,595.52z"/>
	<path fill-rule="evenodd" clip-rule="evenodd" fill="#BCF1ED" d="M223.613,597.292c0-0.591,0-1.181,0-1.772
		c2.059-0.288,3.152,0.392,3.542,1.772C225.975,597.292,224.794,597.292,223.613,597.292z"/>
	<path fill-rule="evenodd" clip-rule="evenodd" fill="#BCF1ED" d="M97.86,597.292c0,5.312,0,10.626,0,15.939c0,0.59,0,1.182,0,1.771
		C94.929,613.093,94.929,599.201,97.86,597.292z"/>
	<path fill-rule="evenodd" clip-rule="evenodd" fill="#3CD8CB" d="M230.698,597.292c2.06-0.288,3.152,0.391,3.542,1.77
		C232.866,598.666,230.747,599.014,230.698,597.292z"/>
	<path fill-rule="evenodd" clip-rule="evenodd" fill="#3CD8CB" d="M140.368,613.232c11.833-2.948,35.99-2.948,47.822,0
		C172.249,613.232,156.309,613.232,140.368,613.232z"/>
	<path fill-rule="evenodd" clip-rule="evenodd" fill="#78E4DB" d="M97.86,615.003c0-0.59,0-1.182,0-1.771c4.133,0,8.265,0,12.398,0
		c0,0.59,0,1.182,0,1.771C106.125,615.003,101.993,615.003,97.86,615.003z"/>
	<path fill-rule="evenodd" clip-rule="evenodd" fill="#BCF1ED" d="M110.258,615.003c0-0.59,0-1.182,0-1.771
		c4.132,0,8.265,0,12.398,0C121.894,617.193,113.928,613.95,110.258,615.003z"/>
	<path fill-rule="evenodd" clip-rule="evenodd" fill="#BCF1ED" d="M221.842,615.003c-4.235-1.078-12.85,2.223-14.169-1.771
		c4.723,0,9.446,0,14.169,0C221.842,613.822,221.842,614.414,221.842,615.003z"/>
	<path fill-rule="evenodd" clip-rule="evenodd" fill="#3CD8CB" d="M367.079,618.546c0-0.59,0-1.183,0-1.771
		c2.084,0.275,5.027-0.305,5.312,1.771C370.62,618.546,368.849,618.546,367.079,618.546z"/>
	<path fill-rule="evenodd" clip-rule="evenodd" fill="#3CD8CB" d="M390.104,618.546c0.391-1.38,1.481-2.061,3.542-1.771
		c0,0.589,0,1.182,0,1.771C392.467,618.546,391.285,618.546,390.104,618.546z"/>
	<path fill-rule="evenodd" clip-rule="evenodd" fill="#78E4DB" d="M393.646,618.546c0-0.59,0-1.183,0-1.771c1.181,0,2.361,0,3.543,0
		C397.139,618.497,395.021,618.15,393.646,618.546z"/>
	<path fill-rule="evenodd" clip-rule="evenodd" fill="#BCF1ED" d="M400.729,181.066c3.389-4.878,7.521-9.01,12.399-12.398
		C409.741,173.546,405.608,177.678,400.729,181.066z"/>
	<path fill-rule="evenodd" clip-rule="evenodd" fill="#BCF1ED" d="M402.502,326.302c3.704,2.199,6.657,5.15,8.854,8.856
		C407.652,332.959,404.7,330.007,402.502,326.302z"/>
	<path fill-rule="evenodd" clip-rule="evenodd" fill="#78E4DB" d="M499.917,333.387c0.991-2.551,2.761-4.322,5.312-5.314
		C504.239,330.625,502.467,332.396,499.917,333.387z"/>
	<path fill-rule="evenodd" clip-rule="evenodd" fill="#BCF1ED" d="M505.229,328.073c0.785-1.576,1.557-3.168,3.542-3.542
		C507.987,326.108,507.217,327.699,505.229,328.073z"/>
	<path fill-rule="evenodd" clip-rule="evenodd" fill="#E9FBF9" d="M429.069,313.904c-0.626-2.326-3.118-2.786-3.542-5.313
		c2.551,0.991,4.321,2.762,5.312,5.313C430.25,313.904,429.659,313.904,429.069,313.904z"/>
	<path fill-rule="evenodd" clip-rule="evenodd" fill="#78E4DB" d="M425.527,195.236c0.991-2.551,2.762-4.322,5.312-5.314
		c0,0.591,0,1.181,0,1.771C428.513,192.319,428.055,194.811,425.527,195.236z"/>
	<path fill-rule="evenodd" clip-rule="evenodd" fill="#E9FBF9" d="M430.84,189.922c1.436-0.337,1.767-1.777,3.542-1.771
		c-0.782,1.577-1.554,3.167-3.542,3.542C430.84,191.103,430.84,190.513,430.84,189.922z"/>
	<path fill-rule="evenodd" clip-rule="evenodd" fill="#78E4DB" d="M480.435,189.922c1.575,0.785,3.166,1.556,3.54,3.542
		C482.399,192.679,480.808,191.909,480.435,189.922z"/>
	<path fill-rule="evenodd" clip-rule="evenodd" fill="#BCF1ED" d="M507.002,179.294c1.575,0.785,3.167,1.556,3.541,3.542
		C508.966,182.053,507.375,181.282,507.002,179.294z"/>
	<path fill-rule="evenodd" clip-rule="evenodd" fill="#78E4DB" d="M498.145,170.439c3.706,2.199,6.657,5.151,8.857,8.855
		C503.296,177.096,500.345,174.143,498.145,170.439z"/>
	<path fill-rule="evenodd" clip-rule="evenodd" fill="#3CD8CB" d="M487.517,197.007c-1.575-0.785-3.167-1.556-3.542-3.542
		C485.553,194.25,487.144,195.02,487.517,197.007z"/>
	<path fill-rule="evenodd" clip-rule="evenodd" fill="#3CD8CB" d="M480.435,189.922c-1.578-0.785-3.17-1.555-3.542-3.542
		C478.468,187.165,480.059,187.936,480.435,189.922z"/>
	<path fill-rule="evenodd" clip-rule="evenodd" fill="#3CD8CB" d="M423.757,308.591c0.59,0,1.18,0,1.771,0
		c0.424,2.528,2.916,2.987,3.542,5.313C426.519,312.913,424.747,311.142,423.757,308.591z"/>
	<path fill-rule="evenodd" clip-rule="evenodd" fill="#3CD8CB" d="M476.893,317.446c0.783-1.576,1.553-3.167,3.542-3.542
		C479.649,315.481,478.878,317.072,476.893,317.446z"/>
	<path fill-rule="evenodd" clip-rule="evenodd" fill="#E9FBF9" d="M127.97,294.421c0.59,0,1.181,0,1.771,0
		c0.626,2.327,3.118,2.786,3.542,5.314C130.733,298.743,128.961,296.972,127.97,294.421z"/>
	<path fill-rule="evenodd" clip-rule="evenodd" fill="#78E4DB" d="M129.741,590.208c0.785-1.578,1.555-3.17,3.542-3.543
		C132.498,588.242,131.728,589.833,129.741,590.208z"/>
	<path fill-rule="evenodd" clip-rule="evenodd" fill="#E9FBF9" d="M193.503,590.208c-0.785-1.578-1.555-3.17-3.542-3.543
		c0-0.591,0-1.18,0-1.771c2.551,0.992,4.321,2.763,5.313,5.313C194.684,590.208,194.094,590.208,193.503,590.208z"/>
	<path fill-rule="evenodd" clip-rule="evenodd" fill="#78E4DB" d="M299.774,576.037c1.575,0.786,3.166,1.557,3.542,3.543
		c-0.592,0-1.182,0-1.771,0C301.209,578.145,299.768,577.814,299.774,576.037z"/>
	<path fill-rule="evenodd" clip-rule="evenodd" fill="#E9FBF9" d="M301.546,579.58c0.589,0,1.179,0,1.771,0
		c0.337,1.435,1.776,1.768,1.771,3.542C303.511,582.337,301.92,581.568,301.546,579.58z"/>
	<path fill-rule="evenodd" clip-rule="evenodd" fill="#BCF1ED" d="M305.087,583.122c1.576,0.786,3.168,1.558,3.542,3.543
		C307.054,585.879,305.461,585.11,305.087,583.122z"/>
	<path fill-rule="evenodd" clip-rule="evenodd" fill="#78E4DB" d="M308.629,586.665c4.291,2.795,7.833,6.337,10.628,10.628
		C314.966,594.497,311.424,590.955,308.629,586.665z"/>
	<path fill-rule="evenodd" clip-rule="evenodd" fill="#BCF1ED" d="M319.257,597.292c1.435,0.335,1.766,1.776,3.542,1.77
		c0,0.59,0,1.182,0,1.771C321.223,600.049,319.631,599.278,319.257,597.292z"/>
	<path fill-rule="evenodd" clip-rule="evenodd" fill="#BCF1ED" d="M349.367,565.41c6.055,4.572,11.37,9.886,15.939,15.941
		C359.251,576.78,353.938,571.466,349.367,565.41z"/>
	<path fill-rule="evenodd" clip-rule="evenodd" fill="#78E4DB" d="M345.824,561.868c1.576,0.786,3.168,1.556,3.543,3.542
		C347.789,564.625,346.199,563.855,345.824,561.868z"/>
	<path fill-rule="evenodd" clip-rule="evenodd" fill="#BCF1ED" d="M338.739,553.012c2.551,0.991,4.322,2.765,5.315,5.313
		c-0.592,0-1.183,0-1.772,0C341.655,556,339.164,555.541,338.739,553.012z"/>
	<path fill-rule="evenodd" clip-rule="evenodd" fill="#BCF1ED" d="M331.654,544.157c1.577,0.784,3.168,1.555,3.543,3.542
		c-0.591,0-1.181,0-1.771,0C333.089,546.265,331.649,545.934,331.654,544.157z"/>
	<path fill-rule="evenodd" clip-rule="evenodd" fill="#BCF1ED" d="M324.57,535.3c1.576,0.785,3.168,1.556,3.543,3.542
		c-0.592,0-1.181,0-1.771,0C326.004,537.409,324.565,537.077,324.57,535.3z"/>
	<path fill-rule="evenodd" clip-rule="evenodd" fill="#78E4DB" d="M308.629,436.116c0.786-1.578,1.557-3.168,3.543-3.543
		C311.388,434.149,310.617,435.74,308.629,436.116z"/>
	<path fill-rule="evenodd" clip-rule="evenodd" fill="#E9FBF9" d="M313.942,432.573c2.795-4.292,6.338-7.834,10.628-10.627
		C321.776,426.236,318.233,429.779,313.942,432.573z"/>
	<path fill-rule="evenodd" clip-rule="evenodd" fill="#BCF1ED" d="M326.342,418.403c0.784-1.576,1.555-3.167,3.542-3.542
		C329.1,416.438,328.328,418.029,326.342,418.403z"/>
	<path fill-rule="evenodd" clip-rule="evenodd" fill="#BCF1ED" d="M322.799,296.192c2.551,0.992,4.322,2.764,5.314,5.314
		c-0.592,0-1.181,0-1.771,0C325.716,299.18,323.224,298.72,322.799,296.192z"/>
	<path fill-rule="evenodd" clip-rule="evenodd" fill="#E9FBF9" d="M321.028,296.192c-0.337-1.434-1.777-1.765-1.771-3.542
		c1.576,0.786,3.168,1.556,3.542,3.542C322.209,296.192,321.618,296.192,321.028,296.192z"/>
	<path fill-rule="evenodd" clip-rule="evenodd" fill="#3CD8CB" d="M317.485,292.649c0.591,0,1.181,0,1.771,0
		c-0.006,1.777,1.435,2.108,1.771,3.542C319.451,295.408,317.86,294.637,317.485,292.649z"/>
	<path fill-rule="evenodd" clip-rule="evenodd" fill="#3CD8CB" d="M326.342,301.506c0.591,0,1.18,0,1.771,0
		c0.336,1.435,1.776,1.766,1.771,3.542C328.308,304.263,326.716,303.493,326.342,301.506z"/>
	<path fill-rule="evenodd" clip-rule="evenodd" fill="#3CD8CB" d="M312.172,432.573c3.388-4.878,7.521-9.011,12.398-12.398
		c0,0.589,0,1.18,0,1.771c-4.29,2.793-7.833,6.335-10.628,10.627C313.353,432.573,312.763,432.573,312.172,432.573z"/>
	<path fill-rule="evenodd" clip-rule="evenodd" fill="#3CD8CB" d="M303.316,439.657c0.784-1.576,1.556-3.167,3.541-3.541
		C306.074,437.692,305.303,439.283,303.316,439.657z"/>
	<path fill-rule="evenodd" clip-rule="evenodd" fill="#3CD8CB" d="M301.546,505.19c1.575,0.786,3.166,1.556,3.541,3.542
		C303.511,507.947,301.92,507.177,301.546,505.19z"/>
	<path fill-rule="evenodd" clip-rule="evenodd" fill="#3CD8CB" d="M326.342,538.842c0.591,0,1.18,0,1.771,0
		c0.336,1.436,1.776,1.767,1.771,3.543C328.308,541.599,326.716,540.83,326.342,538.842z"/>
	<path fill-rule="evenodd" clip-rule="evenodd" fill="#3CD8CB" d="M333.426,547.699c0.591,0,1.181,0,1.771,0
		c0.336,1.435,1.777,1.766,1.772,3.542C335.393,550.457,333.8,549.686,333.426,547.699z"/>
	<path fill-rule="evenodd" clip-rule="evenodd" fill="#3CD8CB" d="M342.282,558.326c0.59,0,1.181,0,1.772,0
		c0.334,1.436,1.775,1.767,1.77,3.542C344.247,561.083,342.656,560.312,342.282,558.326z"/>
	<path fill-rule="evenodd" clip-rule="evenodd" fill="#3CD8CB" d="M402.502,599.062c1.77,0,3.542,0,5.312,0
		c-1.097,4.808,2.249,14.058-1.771,15.941C405.912,608.641,407.478,600.581,402.502,599.062z"/>
	<path fill-rule="evenodd" clip-rule="evenodd" fill="#3CD8CB" d="M322.799,600.833c0-0.59,0-1.182,0-1.771
		c1.576,0.785,3.168,1.557,3.543,3.543C324.907,602.268,324.576,600.829,322.799,600.833z"/>
	<path fill-rule="evenodd" clip-rule="evenodd" fill="#3CD8CB" d="M280.291,547.699c-1.577-0.784-3.167-1.556-3.542-3.542
		C278.325,544.941,279.916,545.711,280.291,547.699z"/>
	<path fill-rule="evenodd" clip-rule="evenodd" fill="#3CD8CB" d="M189.961,586.665c1.987,0.373,2.757,1.965,3.542,3.543
		C191.927,589.422,190.336,588.653,189.961,586.665z"/>
	<path fill-rule="evenodd" clip-rule="evenodd" fill="#3CD8CB" d="M133.283,299.735c-0.424-2.528-2.916-2.987-3.542-5.314
		c2.551,0.992,4.322,2.763,5.313,5.314C134.464,299.735,133.874,299.735,133.283,299.735z"/>
	<path fill-rule="evenodd" clip-rule="evenodd" fill="#3CD8CB" d="M274.978,420.175c0.784-1.577,1.555-3.168,3.542-3.542
		C277.735,418.208,276.964,419.799,274.978,420.175z"/>
	<path fill-rule="evenodd" clip-rule="evenodd" fill="#78E4DB" d="M278.519,416.632c0.992-2.551,2.763-4.322,5.314-5.314
		C282.841,413.869,281.07,415.641,278.519,416.632z"/>
	<path fill-rule="evenodd" clip-rule="evenodd" fill="#3CD8CB" d="M283.833,411.318c0.785-1.577,1.556-3.168,3.542-3.542
		C286.592,409.353,285.82,410.944,283.833,411.318z"/>
	<path fill-rule="evenodd" clip-rule="evenodd" fill="#3CD8CB" d="M285.604,315.675c-1.577-0.784-3.168-1.555-3.542-3.542
		C283.639,312.918,285.229,313.688,285.604,315.675z"/>
	<path fill-rule="evenodd" clip-rule="evenodd" fill="#BCF1ED" d="M276.749,308.591c1.576,0.785,3.167,1.555,3.542,3.542
		C278.714,311.348,277.124,310.577,276.749,308.591z"/>
	<path fill-rule="evenodd" clip-rule="evenodd" fill="#E9FBF9" d="M280.291,312.133c0.591,0,1.181,0,1.771,0
		c0.375,1.986,1.966,2.757,3.542,3.542c0,0.591,0,1.181,0,1.771C283.053,316.455,281.282,314.684,280.291,312.133z"/>
	<path fill-rule="evenodd" clip-rule="evenodd" fill="#BCF1ED" d="M434.382,159.812c0.288-2.076,3.23-1.494,5.315-1.771
		C439.409,160.117,436.468,159.535,434.382,159.812z"/>
	<path fill-rule="evenodd" clip-rule="evenodd" fill="#78E4DB" d="M460.95,181.066c2.085,0.277,5.027-0.304,5.313,1.771
		c-1.771,0-3.542,0-5.313,0C460.95,182.247,460.95,181.657,460.95,181.066z"/>
	<path fill-rule="evenodd" clip-rule="evenodd" fill="#3CD8CB" d="M391.874,200.549c-0.288-2.06,0.391-3.151,1.772-3.542
		C393.249,198.381,393.597,200.501,391.874,200.549z"/>
	<path fill-rule="evenodd" clip-rule="evenodd" fill="#3CD8CB" d="M505.229,202.32c0.391-1.38,1.483-2.059,3.542-1.771
		C508.724,202.271,506.604,201.924,505.229,202.32z"/>
	<path fill-rule="evenodd" clip-rule="evenodd" fill="#3CD8CB" d="M390.104,205.862c-0.288-2.058,0.391-3.151,1.77-3.542
		C391.478,203.694,391.826,205.814,390.104,205.862z"/>
	<path fill-rule="evenodd" clip-rule="evenodd" fill="#BCF1ED" d="M388.332,212.947c-0.151-2.514-0.293-5.015,1.772-5.313
		c0,1.771,0,3.542,0,5.313C389.514,212.947,388.924,212.947,388.332,212.947z"/>
	<path fill-rule="evenodd" clip-rule="evenodd" fill="#3CD8CB" d="M274.978,273.167c2.059-0.289,3.152,0.391,3.542,1.771
		C277.146,274.541,275.026,274.89,274.978,273.167z"/>
	<path fill-rule="evenodd" clip-rule="evenodd" fill="#3CD8CB" d="M282.062,274.938c2.06-0.289,3.151,0.391,3.542,1.771
		C284.23,276.312,282.111,276.661,282.062,274.938z"/>
	<path fill-rule="evenodd" clip-rule="evenodd" fill="#3CD8CB" d="M287.375,276.709c2.06-0.288,3.152,0.391,3.542,1.771
		C289.544,278.083,287.424,278.432,287.375,276.709z"/>
	<path fill-rule="evenodd" clip-rule="evenodd" fill="#00CCBB" d="M290.918,278.481c2.861-0.5,3.049,1.674,5.314,1.771
		c0.048,1.722,2.167,1.374,3.542,1.771c6.679,2.767,11.992,6.899,17.711,10.626c0.375,1.988,1.966,2.758,3.543,3.542
		c0.59,0,1.181,0,1.771,0c0.425,2.528,2.917,2.988,3.543,5.314c0.374,1.987,1.966,2.757,3.542,3.542
		c5.247,6.561,9.786,13.829,12.398,23.025c-0.289,2.06,0.391,3.151,1.772,3.542c0,1.181,0,2.362,0,3.542
		c-0.289,2.058,0.391,3.151,1.77,3.542c0,1.181,0,2.361,0,3.542c0,1.181,0,2.361,0,3.542c-0.288,2.06,0.391,3.151,1.771,3.542
		c0,2.952,0,5.904,0,8.856c0,1.181,0,2.362,0,3.542c0,2.361,0,4.724,0,7.084c-1.723,0.049-1.373,2.168-1.771,3.542
		c0,1.771,0,3.542,0,5.313c0,0.59,0,1.181,0,1.771c-1.722,0.049-1.375,2.169-1.77,3.542c0,0.591,0,1.181,0,1.771
		c-1.725,0.049-1.375,2.168-1.772,3.542c0,0.591,0,1.181,0,1.771c-1.723,0.049-1.375,2.168-1.771,3.542
		c-3.101,7.526-7.722,13.533-10.628,21.253c-1.987,0.375-2.758,1.966-3.542,3.542c-1.507-0.325-1.672,0.691-1.771,1.772
		c-4.878,3.387-9.011,7.52-12.398,12.398c-1.986,0.375-2.757,1.965-3.543,3.543c-0.591,0-1.181,0-1.771,0
		c-1.985,0.374-2.757,1.965-3.541,3.541c-6.86,3.768-13.046,8.209-21.255,10.628c-2.058-0.288-3.151,0.392-3.542,1.771
		c-0.59,0-1.18,0-1.77,0c-2.06-0.288-3.151,0.392-3.542,1.771c-0.18-0.16-1.694,0.199-1.771,0
		c6.545,16.853,20.623,34.488,30.111,51.363c0.374,1.987,1.965,2.757,3.541,3.542c6.05,9.303,12.349,18.353,19.483,26.568
		c-0.005,1.776,1.434,2.108,1.771,3.542c0.374,1.987,1.966,2.757,3.542,3.543c-0.325,1.505,0.69,1.67,1.771,1.771
		c-0.005,1.777,1.435,2.108,1.771,3.542c0.374,1.987,1.967,2.758,3.544,3.542c-0.327,1.507,0.688,1.672,1.77,1.771
		c0.425,2.528,2.916,2.987,3.543,5.313c0.374,1.986,1.965,2.757,3.542,3.542c0.375,1.987,1.965,2.757,3.543,3.542
		c4.57,6.057,9.884,11.37,15.939,15.941c8.054,6.706,16.245,13.273,28.34,15.941c0.049,1.722,2.168,1.373,3.543,1.77
		c1.77,0,3.54,0,5.312,0c4.976,1.519,3.41,9.579,3.542,15.941c-0.59,0-1.181,0-1.772,0c-2.059-0.288-3.15,0.391-3.542,1.771
		c-1.179,0-2.361,0-3.54,0c-1.182,0-2.362,0-3.543,0c-2.061-0.289-3.151,0.392-3.542,1.771c-5.904,0-11.808,0-17.713,0
		c-0.285-2.076-3.229-1.496-5.312-1.771c-1.772,0-3.542,0-5.315,0c-0.589,0-1.18,0-1.77,0c-0.049-1.723-2.168-1.375-3.542-1.771
		c-1.181,0-2.362,0-3.543,0c-0.048-1.723-2.167-1.374-3.542-1.771c-0.592,0-1.181,0-1.772,0c-0.049-1.723-2.168-1.375-3.54-1.771
		c-6.954-1.904-11.874-5.841-17.713-8.856c-0.375-1.986-1.967-2.758-3.543-3.543c-1.776,0.007-2.107-1.435-3.542-1.77
		c-2.795-4.291-6.337-7.833-10.628-10.628c-0.374-1.985-1.966-2.757-3.542-3.543c0.006-1.774-1.434-2.107-1.771-3.542
		c-0.376-1.986-1.967-2.757-3.542-3.543c-5.95-9.988-14.308-17.573-19.484-28.338c-0.375-1.987-1.966-2.758-3.542-3.542
		c-18.246-26.625-34.596-55.146-51.365-83.244c-1.884-4.021-11.133-0.676-15.94-1.772c-5.904,0-11.809,0-17.712,0
		c-1.42,0.904-5.953-1.18-7.084,0c-5.886,6.131-1.771,32.947-1.771,49.592c0,20.231,0,38.255,0,49.594c0,2.361,0,4.723,0,7.084
		c-0.289,2.061,0.391,3.152,1.771,3.542c0,1.773,0,3.543,0,5.314c-0.289,2.06,0.391,3.15,1.771,3.543c0,0.59,0,1.18,0,1.771
		c-0.288,2.06,0.391,3.151,1.771,3.542c-0.326,1.507,0.69,1.672,1.771,1.772c0,0.591,0,1.18,0,1.771
		c0.375,1.988,1.965,2.758,3.542,3.543c0.591,0,1.181,0,1.771,0c1.505,2.626,4.458,3.808,8.855,3.543
		c0.048,1.722,2.168,1.374,3.542,1.77c1.181,0,2.362,0,3.542,0s2.362,0,3.542,0s2.361,0,3.542,0
		c0.285,2.077,3.229,1.495,5.313,1.772c1.181,0,2.361,0,3.542,0c1.181,0,2.361,0,3.542,0c0.049,1.722,2.168,1.373,3.542,1.77
		c0,4.725,0,9.447,0,14.17c-4.132,0-8.266,0-12.398,0c-4.723,0-9.446,0-14.169,0c-6.495,0-12.988,0-19.482,0
		c-11.833-2.948-35.99-2.948-47.822,0c-5.904,0-11.808,0-17.712,0c-4.133,0-8.266,0-12.398,0c-4.133,0-8.265,0-12.398,0
		c0-5.313,0-10.627,0-15.939c2.361,0,4.723,0,7.084,0c2.514,0.152,5.015,0.291,5.313-1.772c1.181,0,2.362,0,3.542,0
		c2.513,0.153,5.015,0.293,5.313-1.77c1.18,0,2.361,0,3.542,0c2.06,0.286,3.151-0.392,3.542-1.772
		c1.435-0.337,1.766-1.776,3.542-1.771c1.987-0.374,2.757-1.966,3.542-3.543c2.493-3.411,4.681-7.128,5.314-12.398
		c1.722-0.05,1.375-2.167,1.771-3.541c0-1.773,0-3.543,0-5.315c0-2.361,0-4.723,0-7.084c2.952-73.209,2.952-158.814,0-232.023
		c0-1.771,0-3.542,0-5.314c-0.147-2.804,0.852-6.755-1.771-7.084c0-1.771,0-3.542,0-5.313c0.288-2.06-0.391-3.151-1.771-3.542
		c0.499-2.861-1.674-3.049-1.771-5.313c-0.992-2.551-2.763-4.322-5.313-5.314c-0.59,0-1.181,0-1.771,0
		c-0.286-2.076-3.229-1.494-5.314-1.771c-0.048-1.723-2.167-1.374-3.542-1.771c-1.181,0-2.362,0-3.542,0
		c-0.286-2.076-3.229-1.493-5.313-1.771c-0.59,0-1.181,0-1.771,0c-0.286-2.075-3.229-1.493-5.314-1.77c-1.771,0-3.542,0-5.313,0
		c0-5.313,0-10.627,0-15.941c1.771,0,3.542,0,5.313,0c24.797,0,49.593,0,74.39,0c4.723,0,9.446,0,14.169,0
		c4.806-1.097,14.056,2.249,15.94-1.771c14.169,0,28.339,0,42.509,0c0.285,2.076,3.229,1.494,5.312,1.771c1.181,0,2.361,0,3.542,0
		s2.361,0,3.542,0c1.181,0,2.361,0,3.542,0c0.286,2.076,3.229,1.494,5.313,1.771c1.181,0,2.363,0,3.542,0
		c0.048,1.723,2.168,1.374,3.542,1.771c1.181,0,2.362,0,3.542,0c0.049,1.722,2.169,1.374,3.542,1.771c0.591,0,1.181,0,1.771,0
		C287.424,278.432,289.544,278.083,290.918,278.481z M182.877,296.192c0,45.461,0,90.921,0,136.381
		c0.391,1.381,1.482,2.059,3.542,1.771c1.771,0,3.542,0,5.313,0c2.362,0,4.723,0,7.084,0c1.319,3.994,9.935,0.691,14.17,1.771
		c4.723,0,9.446,0,14.169,0c2.65-0.302,6.537,0.632,7.084-1.771c1.771,0,3.542,0,5.314,0c2.084-0.277,5.028,0.305,5.313-1.771
		c1.181,0,2.362,0,3.542,0c1.374-0.397,3.493-0.049,3.542-1.771c9.747-1.472,15.572-6.865,23.026-10.627
		c1.987-0.375,2.757-1.966,3.542-3.542c2.551-0.992,4.322-2.763,5.314-5.314c1.987-0.374,2.759-1.965,3.542-3.542
		c2.452-6.404,7.79-9.922,8.856-17.712c1.38-0.391,2.059-1.483,1.771-3.542c0-1.181,0-2.361,0-3.542
		c1.381-0.391,2.06-1.483,1.771-3.542c0-1.771,0-3.542,0-5.313c1.38-0.391,2.059-1.483,1.771-3.542c0-5.313,0-10.627,0-15.941
		c-0.277-2.084,0.304-5.027-1.771-5.313c0-0.59,0-1.181,0-1.771c-0.277-2.084,0.305-5.027-1.771-5.313c0-1.181,0-2.361,0-3.542
		c-0.397-1.375-0.049-3.494-1.771-3.542c-1.968-7.479-5.443-13.45-10.628-17.712c0-0.59,0-1.18,0-1.771
		c-0.375-1.987-1.965-2.757-3.542-3.542c-0.59,0-1.18,0-1.771,0c-0.375-1.987-1.966-2.758-3.542-3.542
		c-6.485-4.733-13.132-9.303-23.026-10.627c-0.391-1.38-1.483-2.06-3.542-1.771c-1.772,0-3.542,0-5.314,0
		c-0.391-1.379-1.483-2.06-3.542-1.771c-1.181,0-2.362,0-3.542,0c-14.759,0-29.52,0-44.279,0c-2.361,0-4.723,0-7.084,0
		C185.045,294.818,182.925,294.47,182.877,296.192z"/>
	<path fill-rule="evenodd" clip-rule="evenodd" fill="#3CD8CB" d="M296.232,280.252c2.058-0.289,3.152,0.391,3.542,1.771
		C298.399,281.626,296.28,281.974,296.232,280.252z"/>
	<path fill-rule="evenodd" clip-rule="evenodd" fill="#BCF1ED" d="M110.258,289.107c2.084,0.279,5.028-0.304,5.313,1.771
		C113.058,291.031,110.557,291.171,110.258,289.107z"/>
	<path fill-rule="evenodd" clip-rule="evenodd" fill="#BCF1ED" d="M418.442,292.649c-2.062-0.297-1.924-2.8-1.771-5.312
		C418.747,287.622,418.165,290.566,418.442,292.649z"/>
	<path fill-rule="evenodd" clip-rule="evenodd" fill="#3CD8CB" d="M491.06,296.192c-0.289-2.059,0.392-3.151,1.772-3.542
		C492.435,294.024,492.781,296.144,491.06,296.192z"/>
	<path fill-rule="evenodd" clip-rule="evenodd" fill="#FFFFFF" d="M244.868,296.192c1.771,0,3.542,0,5.314,0
		c0.048,1.723,2.167,1.375,3.542,1.771c9.894,1.324,16.541,5.895,23.026,10.627c0.375,1.986,1.965,2.757,3.542,3.542
		c0.991,2.55,2.763,4.322,5.313,5.312c5.185,4.262,8.66,10.233,10.628,17.712c-0.289,2.058,0.391,3.151,1.771,3.542
		c0,1.181,0,2.361,0,3.542c-0.153,2.514-0.293,5.016,1.771,5.313c0,0.591,0,1.181,0,1.771c0,1.771,0,3.542,0,5.313
		c0,5.314,0,10.627,0,15.941c0,1.18,0,2.361,0,3.542c0,1.771,0,3.542,0,5.313c-1.724,0.049-1.375,2.169-1.771,3.542
		c0,1.181,0,2.362,0,3.542c-1.723,0.049-1.375,2.168-1.771,3.542c-1.067,7.79-6.405,11.308-8.856,17.712
		c-1.987,0.374-2.757,1.965-3.542,3.542c-2.551,0.992-4.322,2.763-5.314,5.314c-1.986,0.375-2.757,1.966-3.542,3.542
		c-7.454,3.762-13.279,9.156-23.026,10.627c-2.058-0.289-3.151,0.391-3.542,1.771c-1.181,0-2.362,0-3.542,0
		c-2.514-0.151-5.016-0.293-5.313,1.771c-1.771,0-3.542,0-5.314,0c-2.361,0-4.723,0-7.084,0c-4.723,0-9.446,0-14.169,0
		c-4.724,0-9.447,0-14.17,0c-2.361,0-4.723,0-7.084,0c-0.298-2.064-2.799-1.923-5.313-1.771c-0.59,0-1.181,0-1.771,0
		c0-45.46,0-90.92,0-136.381c0.59,0,1.181,0,1.771,0c2.362,0,4.723,0,7.084,0c14.76,0,29.52,0,44.279,0c1.181,0,2.362,0,3.542,0
		S243.687,296.192,244.868,296.192z"/>
	<path fill-rule="evenodd" clip-rule="evenodd" fill="#3CD8CB" d="M250.182,296.192c2.059-0.288,3.151,0.392,3.542,1.771
		C252.349,297.567,250.23,297.915,250.182,296.192z"/>
	<path fill-rule="evenodd" clip-rule="evenodd" fill="#3CD8CB" d="M391.874,303.277c-1.722-0.049-1.374-2.168-1.77-3.542
		C391.483,300.126,392.163,301.217,391.874,303.277z"/>
	<path fill-rule="evenodd" clip-rule="evenodd" fill="#3CD8CB" d="M517.627,303.277c0.398-1.375,0.05-3.494,1.772-3.542
		C519.688,301.794,519.009,302.886,517.627,303.277z"/>
	<path fill-rule="evenodd" clip-rule="evenodd" fill="#3CD8CB" d="M138.597,308.591c-1.723-0.049-1.375-2.168-1.771-3.542
		C138.206,305.439,138.885,306.531,138.597,308.591z"/>
	<path fill-rule="evenodd" clip-rule="evenodd" fill="#3CD8CB" d="M393.646,308.591c-1.724-0.049-1.374-2.168-1.772-3.542
		C393.256,305.439,393.933,306.531,393.646,308.591z"/>
	<path fill-rule="evenodd" clip-rule="evenodd" fill="#3CD8CB" d="M514.085,313.904c0.397-1.375,0.05-3.494,1.771-3.542
		C516.145,312.42,515.466,313.513,514.085,313.904z"/>
	<path fill-rule="evenodd" clip-rule="evenodd" fill="#3CD8CB" d="M468.035,320.988c0.049-1.723,2.167-1.374,3.542-1.771
		C471.186,320.598,470.094,321.276,468.035,320.988z"/>
	<path fill-rule="evenodd" clip-rule="evenodd" fill="#78E4DB" d="M457.407,320.988c2.362,0,4.724,0,7.085,0
		c-0.329,2.624-4.279,1.625-7.085,1.771C457.407,322.169,457.407,321.579,457.407,320.988z"/>
	<path fill-rule="evenodd" clip-rule="evenodd" fill="#3CD8CB" d="M342.282,328.073c1.722,0.048,1.375,2.167,1.772,3.542
		C342.673,331.225,341.993,330.133,342.282,328.073z"/>
	<path fill-rule="evenodd" clip-rule="evenodd" fill="#3CD8CB" d="M298.003,338.701c-1.38-0.391-2.06-1.484-1.771-3.542
		C297.954,335.207,297.605,337.326,298.003,338.701z"/>
	<path fill-rule="evenodd" clip-rule="evenodd" fill="#3CD8CB" d="M344.055,335.158c1.722,0.049,1.372,2.167,1.77,3.542
		C344.445,338.31,343.766,337.216,344.055,335.158z"/>
	<path fill-rule="evenodd" clip-rule="evenodd" fill="#3CD8CB" d="M425.527,342.243c1.375,0.396,3.494,0.049,3.542,1.771
		C427.012,344.301,425.918,343.624,425.527,342.243z"/>
	<path fill-rule="evenodd" clip-rule="evenodd" fill="#3CD8CB" d="M480.435,344.013c0.39-1.379,1.481-2.058,3.54-1.771
		C483.927,343.965,481.808,343.618,480.435,344.013z"/>
	<path fill-rule="evenodd" clip-rule="evenodd" fill="#3CD8CB" d="M430.84,344.013c1.375,0.398,3.494,0.05,3.542,1.771
		C432.323,346.073,431.231,345.394,430.84,344.013z"/>
	<path fill-rule="evenodd" clip-rule="evenodd" fill="#3CD8CB" d="M475.12,345.785c0.39-1.38,1.483-2.059,3.542-1.771
		C478.614,345.737,476.494,345.389,475.12,345.785z"/>
	<path fill-rule="evenodd" clip-rule="evenodd" fill="#3CD8CB" d="M466.264,347.556c0.298-2.063,2.801-1.923,5.313-1.771
		C471.292,347.86,468.348,347.279,466.264,347.556z"/>
	<path fill-rule="evenodd" clip-rule="evenodd" fill="#3CD8CB" d="M298.003,382.979c0.396-1.374,0.048-3.494,1.771-3.542
		C300.062,381.497,299.384,382.588,298.003,382.979z"/>
	<path fill-rule="evenodd" clip-rule="evenodd" fill="#3CD8CB" d="M344.055,382.979c0.395-1.374,0.048-3.494,1.77-3.542
		C346.113,381.497,345.433,382.588,344.055,382.979z"/>
	<path fill-rule="evenodd" clip-rule="evenodd" fill="#3CD8CB" d="M342.282,388.293c0.397-1.374,0.048-3.494,1.772-3.542
		C344.34,386.811,343.662,387.902,342.282,388.293z"/>
	<path fill-rule="evenodd" clip-rule="evenodd" fill="#3CD8CB" d="M296.232,390.064c0.396-1.375,0.048-3.494,1.771-3.542
		C298.291,388.581,297.612,389.674,296.232,390.064z"/>
	<path fill-rule="evenodd" clip-rule="evenodd" fill="#3CD8CB" d="M340.512,393.607c0.396-1.375,0.048-3.494,1.771-3.542
		C342.57,392.124,341.891,393.216,340.512,393.607z"/>
	<path fill-rule="evenodd" clip-rule="evenodd" fill="#3CD8CB" d="M248.41,432.573c0.391-1.38,1.483-2.06,3.542-1.771
		C251.903,432.524,249.784,432.175,248.41,432.573z"/>
	<path fill-rule="evenodd" clip-rule="evenodd" fill="#78E4DB" d="M239.554,434.344c0.298-2.064,2.8-1.923,5.313-1.771
		C244.582,434.649,241.638,434.067,239.554,434.344z"/>
	<path fill-rule="evenodd" clip-rule="evenodd" fill="#3CD8CB" d="M278.519,452.055c0.391-1.379,1.484-2.059,3.542-1.771
		C282.014,452.007,279.894,451.659,278.519,452.055z"/>
	<path fill-rule="evenodd" clip-rule="evenodd" fill="#3CD8CB" d="M273.207,453.827c0.391-1.38,1.483-2.06,3.542-1.771
		C276.7,453.779,274.581,453.43,273.207,453.827z"/>
	<path fill-rule="evenodd" clip-rule="evenodd" fill="#BCF1ED" d="M138.597,570.725c-0.152-2.515-0.292-5.017,1.771-5.315
		c0,1.772,0,3.542,0,5.315C139.778,570.725,139.188,570.725,138.597,570.725z"/>
	<path fill-rule="evenodd" clip-rule="evenodd" fill="#3CD8CB" d="M184.648,574.266c1.722,0.049,1.374,2.169,1.771,3.543
		C185.039,577.417,184.359,576.326,184.648,574.266z"/>
	<path fill-rule="evenodd" clip-rule="evenodd" fill="#3CD8CB" d="M186.419,579.58c1.722,0.05,1.374,2.167,1.771,3.542
		C186.81,582.731,186.131,581.639,186.419,579.58z"/>
	<path fill-rule="evenodd" clip-rule="evenodd" fill="#3CD8CB" d="M122.656,593.75c0.049-1.724,2.168-1.375,3.542-1.772
		C125.808,593.359,124.716,594.037,122.656,593.75z"/>
	<path fill-rule="evenodd" clip-rule="evenodd" fill="#78E4DB" d="M113.801,595.52c0.286-2.075,3.229-1.494,5.313-1.77
		C118.816,595.813,116.314,595.673,113.801,595.52z"/>
	<path fill-rule="evenodd" clip-rule="evenodd" fill="#3CD8CB" d="M393.646,597.292c2.059-0.288,3.151,0.391,3.543,1.77
		C395.814,598.666,393.695,599.014,393.646,597.292z"/>
	<path fill-rule="evenodd" clip-rule="evenodd" fill="#3CD8CB" d="M344.055,611.461c1.372,0.396,3.491,0.048,3.54,1.771
		C345.536,613.521,344.444,612.841,344.055,611.461z"/>
	<path fill-rule="evenodd" clip-rule="evenodd" fill="#78E4DB" d="M221.842,613.232c4.132,0,8.266,0,12.398,0
		c-0.763,3.961-8.729,0.718-12.398,1.771C221.842,614.414,221.842,613.822,221.842,613.232z"/>
	<path fill-rule="evenodd" clip-rule="evenodd" fill="#3CD8CB" d="M349.367,613.232c1.375,0.397,3.494,0.049,3.542,1.771
		C350.851,615.291,349.758,614.612,349.367,613.232z"/>
	<path fill-rule="evenodd" clip-rule="evenodd" fill="#3CD8CB" d="M356.452,615.003c1.374,0.396,3.493,0.049,3.542,1.771
		C357.936,617.062,356.842,616.384,356.452,615.003z"/>
	<path fill-rule="evenodd" clip-rule="evenodd" fill="#3CD8CB" d="M400.729,616.775c0.392-1.381,1.483-2.06,3.542-1.771
		C404.224,616.727,402.104,616.378,400.729,616.775z"/>
	<path fill-rule="evenodd" clip-rule="evenodd" fill="#BCF1ED" d="M361.764,616.775c1.773,0,3.543,0,5.315,0
		c0,0.589,0,1.182,0,1.771C364.564,618.699,362.062,618.837,361.764,616.775z"/>
	<path fill-rule="evenodd" clip-rule="evenodd" fill="#BCF1ED" d="M418.442,212.947c0.152,2.514,0.292,5.017-1.771,5.314
		C416.948,216.176,416.367,213.233,418.442,212.947z"/>
	<path fill-rule="evenodd" clip-rule="evenodd" fill="#BCF1ED" d="M390.104,292.649c0,1.771,0,3.542,0,5.314
		c-2.077-0.286-1.494-3.229-1.772-5.314C388.924,292.649,389.514,292.649,390.104,292.649z"/>
	<path fill-rule="evenodd" clip-rule="evenodd" fill="#BCF1ED" d="M138.597,313.904c2.623,0.329,1.624,4.28,1.771,7.084
		C137.964,320.441,138.898,316.554,138.597,313.904z"/>
	<path fill-rule="evenodd" clip-rule="evenodd" fill="#BCF1ED" d="M298.003,342.243c2.076,0.286,1.494,3.229,1.771,5.313
		C297.71,347.258,297.85,344.756,298.003,342.243z"/>
	<path fill-rule="evenodd" clip-rule="evenodd" fill="#BCF1ED" d="M347.595,372.353c0.152,2.514,0.292,5.016-1.771,5.313
		c0-1.771,0-3.542,0-5.313C346.414,372.353,347.005,372.353,347.595,372.353z"/>
	<path fill-rule="evenodd" clip-rule="evenodd" fill="#78E4DB" d="M468.035,158.041c2.515-0.152,5.017-0.292,5.313,1.771
		C471.264,159.535,468.321,160.117,468.035,158.041z"/>
	<path fill-rule="evenodd" clip-rule="evenodd" fill="#78E4DB" d="M445.01,182.837c0.299-2.062,2.8-1.923,5.314-1.771
		c0,0.591,0,1.181,0,1.771C448.552,182.837,446.782,182.837,445.01,182.837z"/>
	<path fill-rule="evenodd" clip-rule="evenodd" fill="#78E4DB" d="M266.122,271.396c2.514-0.152,5.016-0.292,5.313,1.771
		C269.351,272.889,266.408,273.472,266.122,271.396z"/>
	<path fill-rule="evenodd" clip-rule="evenodd" fill="#3CD8CB" d="M103.173,287.337c2.084,0.277,5.028-0.305,5.314,1.77
		C105.974,289.259,103.472,289.4,103.173,287.337z"/>
	<path fill-rule="evenodd" clip-rule="evenodd" fill="#78E4DB" d="M521.17,290.878c0.152,2.514,0.293,5.016-1.771,5.313
		C519.676,294.108,519.095,291.165,521.17,290.878z"/>
	<path fill-rule="evenodd" clip-rule="evenodd" fill="#3CD8CB" d="M437.925,345.785c2.086,0.277,5.027-0.304,5.314,1.771
		C440.724,347.708,438.224,347.848,437.925,345.785z"/>
	<path fill-rule="evenodd" clip-rule="evenodd" fill="#3CD8CB" d="M104.945,597.292c0.286-2.076,3.229-1.494,5.313-1.772
		C109.96,597.583,107.458,597.445,104.945,597.292z"/>
	<path fill-rule="evenodd" clip-rule="evenodd" fill="#78E4DB" d="M218.3,595.52c1.771,0,3.542,0,5.313,0c0,0.592,0,1.182,0,1.772
		C221.529,597.015,218.585,597.597,218.3,595.52z"/>
	<path fill-rule="evenodd" clip-rule="evenodd" fill="#00CCBB" d="M439.697,158.041c1.77,0,3.542,0,5.312,0c2.361,0,4.724,0,7.084,0
		c1.773,0,3.543,0,5.313,0c2.362,0,4.724,0,7.085,0c1.182,0,2.362,0,3.543,0c0.286,2.076,3.229,1.494,5.313,1.771
		c10.569,1.238,17.026,6.591,24.796,10.627c2.2,3.704,5.151,6.657,8.857,8.855c0.373,1.987,1.964,2.758,3.541,3.542
		c2.685,5.918,10.397,16.525-1.771,17.712c-2.059-0.288-3.151,0.391-3.542,1.771c-6.937,5.12-16.831,4.275-17.713-5.313
		c-0.373-1.987-1.964-2.757-3.542-3.542c-0.374-1.986-1.965-2.757-3.54-3.542c-0.376-1.986-1.967-2.757-3.542-3.542
		c-5.188,0.462-5.443-4.004-10.629-3.542c-0.286-2.075-3.229-1.494-5.313-1.771c-3.543,0-7.086,0-10.626,0
		c-2.515-0.152-5.016-0.292-5.314,1.771c-4.524,0.789-8.144,2.484-10.628,5.314c-1.775-0.006-2.106,1.434-3.542,1.771
		c-2.551,0.992-4.321,2.763-5.312,5.314c-2.885,5.381-7.803,8.728-7.085,17.711c-2.075,0.286-1.494,3.229-1.771,5.314
		c0,1.181,0,2.362,0,3.542c-2.405,0.547-1.469,4.434-1.772,7.085c0,5.314,0,10.626,0,15.94c0,5.313,0,10.627,0,15.941
		c0,5.312,0,10.626,0,15.94c0.147,2.804-0.851,6.756,1.772,7.085c0,1.181,0,2.361,0,3.542c-0.153,2.513-0.292,5.015,1.771,5.312
		c0.143,6.943,3.122,11.048,5.314,15.941c0.99,2.551,2.762,4.322,5.312,5.313c0.59,0,1.181,0,1.771,0
		c3.334,3.75,8.09,6.081,14.17,7.084c0.049,1.723,2.167,1.374,3.542,1.771c1.182,0,2.362,0,3.542,0c1.773,0,3.543,0,5.313,0
		c2.806-0.147,6.756,0.852,7.085-1.771c1.182,0,2.362,0,3.543,0c2.059,0.288,3.15-0.39,3.542-1.771
		c1.425-0.937,2.876-1.848,5.315-1.771c1.985-0.374,2.757-1.965,3.542-3.542c5.853-3.594,8.984-9.907,10.625-17.712
		c1.722-0.048,1.375-2.168,1.772-3.542c0-1.18,0-2.361,0-3.542c1.722-0.048,1.375-2.167,1.77-3.541c0-2.362,0-4.724,0-7.085
		c-0.967-2.574,2.071-9.154-1.77-8.856c-7.704-4.103-23.003-0.611-33.653-1.771c0-7.083,0-14.169,0-21.254
		c16.547-2.949,45.445-2.949,61.991,0c0,11.808,0,23.616,0,35.424c0,1.771,0,3.541,0,5.313c0,1.181,0,2.361,0,3.542
		c-2.075,0.286-1.494,3.229-1.771,5.313c0,1.181,0,2.362,0,3.543c-1.723,0.048-1.374,2.167-1.772,3.542
		c0.75,3.702-1.213,4.69-1.771,7.085c-1.722,0.048-1.374,2.168-1.771,3.542c-1.693,3.618-3.617,7.009-5.313,10.626
		c-1.985,0.375-2.757,1.966-3.542,3.542c-2.552,0.992-4.321,2.763-5.312,5.314c-4.666,3.6-10.443,6.088-15.942,8.855
		c-2.059-0.288-3.15,0.391-3.54,1.771c-0.592,0-1.183,0-1.772,0c-2.059-0.287-3.152,0.392-3.542,1.771c-1.181,0-2.361,0-3.543,0
		c-2.513-0.152-5.016-0.292-5.313,1.771c-1.181,0-2.361,0-3.542,0c-5.314,0-10.628,0-15.939,0c-1.181,0-2.362,0-3.543,0
		c-0.287-2.075-3.229-1.494-5.314-1.771c-1.181,0-2.361,0-3.543,0c-0.048-1.722-2.167-1.374-3.542-1.771c-0.59,0-1.181,0-1.771,0
		c-0.048-1.721-2.167-1.374-3.542-1.771c-4.756-2.33-9.415-4.755-14.171-7.084c-2.197-3.706-5.15-6.657-8.854-8.856
		c-2.453-6.403-7.79-9.923-8.855-17.711c0.286-2.06-0.391-3.151-1.772-3.542c0-0.59,0-1.181,0-1.771
		c0.289-2.06-0.391-3.151-1.77-3.542c0-0.59,0-1.181,0-1.771c0-1.771,0-3.542,0-5.314c0.286-2.059-0.392-3.151-1.772-3.542
		c0-1.18,0-2.361,0-3.541c0-1.771,0-3.542,0-5.314c0-3.542,0-7.085,0-10.627c0-11.217,0-22.434,0-33.652c0-3.542,0-7.084,0-10.627
		c0-1.771,0-3.542,0-5.313c0-1.181,0-2.361,0-3.542c1.723-0.048,1.375-2.167,1.772-3.542c0-1.771,0-3.542,0-5.313
		c0-0.59,0-1.18,0-1.771c1.722-0.048,1.373-2.167,1.77-3.542c0-0.59,0-1.181,0-1.771c1.723-0.048,1.375-2.168,1.772-3.542
		c0.422-7.252,6.016-9.333,7.083-15.941c4.879-3.388,9.012-7.52,12.399-12.398c6.85-3.186,13.669-6.406,21.253-8.856
		C436.468,159.535,439.409,160.117,439.697,158.041z"/>
</g>
</svg>
