<?xml version="1.0" encoding="utf-8"?>
<!-- Generator: Adobe Illustrator 15.1.0, SVG Export Plug-In  -->
<!DOCTYPE svg PUBLIC "-//W3C//DTD SVG 1.1//EN" "http://www.w3.org/Graphics/SVG/1.1/DTD/svg11.dtd" [
	<!ENTITY ns_flows "http://ns.adobe.com/Flows/1.0/">
]>
<svg version="1.1"
	 xmlns="http://www.w3.org/2000/svg" xmlns:xlink="http://www.w3.org/1999/xlink" xmlns:a="http://ns.adobe.com/AdobeSVGViewerExtensions/3.0/"
	 x="0px" y="0px" viewBox="-22.723 -220.752 595 842"
	 overflow="visible" enable-background="new -22.723 -220.752 595 842" xml:space="preserve">
<defs>
</defs>
<path fill-rule="evenodd" clip-rule="evenodd" fill="#1DA1F2" d="M56.85,241.504c-1.579-1.947-3.341-3.71-5.288-5.288
	c-16.112-18.115-28.545-39.911-30.409-72.274c0-2.204,0-4.408,0-6.611c14.025,7.422,29.754,13.142,50.24,14.103
	c-3.052-3.561-9.722-7.317-13.662-11.458c-1.578-1.947-3.341-3.71-5.288-5.289c-16.286-18.089-28.662-40.087-30.408-72.715
	c0-3.085,0-6.17,0-9.255c0.732-21.449,7.047-37.317,14.543-52.003c6.847,5.934,11.94,13.621,18.509,19.832
	c2.46,2.828,5.104,5.473,7.933,7.933c51.287,47.724,113.962,84.06,207.129,89.903c-1.185-6.749-2.557-13.309-2.644-21.154
	c0-3.085,0-6.17,0-9.255c1.762-31.446,13.96-56.149,31.73-74.038C316.91,16.141,340.61,2.224,372.833,0c4.994,0,9.989,0,14.983,0
	c29.016,1.703,50.593,13.549,68.309,29.086c2.192,1.924,5.912,5.875,7.492,6.17c3.619,0.678,16.156-3.723,19.831-4.848
	c18.66-5.709,36.144-13.287,50.681-22.475c-4.165,16.547-14.025,31.219-24.68,42.747c-1.946,1.579-3.709,3.342-5.288,5.288
	c-5.671,5.494-12.294,10.035-18.95,14.543c24.429-2.895,45.283-9.363,64.343-17.627c-7.084,11.132-15.336,21.096-24.239,30.408
	c-2.828,2.46-5.472,5.104-7.933,7.932c-7.256,7.435-15.754,13.627-23.798,20.273c0,1.909,0,3.818,0,5.729c0,2.057,0,4.113,0,6.17
	c0,1.469,0,2.938,0,4.406c0,2.057,0,4.113,0,6.17c-5.004,98.71-42.368,165.05-92.105,219.028c-2.976,2.607-5.767,5.398-8.374,8.373
	c-51.18,48.123-115.92,82.691-211.977,85.937c-2.203,0-4.407,0-6.61,0c-1.469,0-2.938,0-4.407,0c-2.057,0-4.113,0-6.17,0
	C95.092,445.058,42.2,424.503,0,397.071c5.216,0.22,9.69,1.18,15.424,0.881c5.878,0.734,14.835,0.734,20.713,0
	c56.407-2.794,96.23-22.17,129.566-48.036c-33.359-1.603-56.324-13.6-74.479-30.408c-1.578-1.947-3.341-3.71-5.288-5.288
	c-10.97-11.652-19.919-25.326-25.12-42.748c5.422,1.041,10.974,1.953,17.628,1.763c1.193,0.732,5.418,0.732,6.611,0
	c10.114,0.272,17.959-1.725,26.001-3.525C89.129,264.166,71.23,254.595,56.85,241.504z"/>
</svg>
