<svg id="Layer_1" data-name="Layer 1" xmlns="http://www.w3.org/2000/svg" viewBox="0 0 210.83 64.43">
  <title>Discover Logo</title>
  <g id="Layer_1-2" data-name="Layer 1">
    <path fill="#13d7d5" d="M78,38c0-5.42,3-9.95,9.25-9.95a9,9,0,0,1,2.74.45V24.93a1.48,1.48,0,0,0-.81-1.58l-1.61-1.13v-.39l7.84-2.67h.21V41.77c0,1,.1,1.37.81,1.61l1.54.57v.24l-7.31,1.94h-.18l-.31-3.2A6.26,6.26,0,0,1,84.69,46C80.82,46,78,43.35,78,38Zm12,4.57V31.22c-1.34-1.58-2.25-2-3.06-2-2,0-3,3.41-3,6.93C83.88,40.47,85.43,43,88,43A4.16,4.16,0,0,0,90,42.58Z"/>
    <path fill="#13d7d5" d="M99.24,44.44l.85-.18c.63-.14.84-.24,1-.52V33.86a1.63,1.63,0,0,0-.77-1.69L98.89,31v-.35L106.55,28h.25V43.77c.14.28.46.39,1,.49l.77.18v1H99.24v-1Zm4.64-24.68a2.91,2.91,0,0,1,3,2.95,3,3,0,1,1-3-2.95Z"/>
    <path fill="#13d7d5" d="M125.33,37.58c0-5.41,3.62-9.52,9.31-9.52,4.22,0,5.77,2.11,5.77,3.58,0,1.3-.84,2.29-2.6,3.06l-1.16-2c-1.51-2.67-2.15-3.37-3-3.37-1.89,0-3.09,2.49-3.09,6.33,0,5.2,2.39,6.89,5.52,6.89a11,11,0,0,0,4.36-.88l.1.17A7.91,7.91,0,0,1,133.31,46C129.41,46,125.33,43.6,125.33,37.58Z"/>
    <path fill="#13d7d5" d="M110.77,45.42l-.35-4.92h.84l2.85,3.9a2.94,2.94,0,0,0,1.69.46c1.72,0,3-.84,3-2.35,0-.85-.21-1.52-2.5-2.68l-2.07-1c-2.32-1.19-3.59-2.35-3.59-4.64,0-3.37,2.89-6.11,6.89-6.11a14.17,14.17,0,0,1,5,.81l.14,4.57h-.84l-2.5-3.73a2.87,2.87,0,0,0-1.83-.46,2.35,2.35,0,0,0-2.63,2.25c0,.88.52,1.41,2.35,2.32l2.08,1.06c3,1.51,4.11,2.74,4.11,4.88,0,3.73-3.2,6.26-7.84,6.26A19.72,19.72,0,0,1,110.77,45.42Z"/>
    <path fill="#13d7d5" d="M160.31,36.32c0,5.41-3.59,9.7-9,9.7-7,0-9.31-4.43-9.31-8.47,0-4.89,3.37-9.49,9.17-9.49C157.21,28.06,160.31,32,160.31,36.32Zm-5.94,1.37c0-3.83-1.23-8.44-3.52-8.44-2,0-2.95,2.6-2.95,7.07s1.26,8.51,3.51,8.51C153.31,44.83,154.37,42.61,154.37,37.69Z" />
    <path fill="#13d7d5" d="M168.15,45.6l-1.23-3.31-4.26-10.12c-.77-1.83-1-2.11-1.75-2.39l-.39-.14v-1h9.95v1l-.88.21c-1.06.21-1.41.42-1.62.67L172.19,41l3.87-10.27c-.35-.45-.74-.66-1.9-1l-.6-.17v-1h5.8v1c-1.23.42-1.72,1.4-2.7,3.79l-4.89,11.85Z"/>
    <path fill="#13d7d5" d="M179.4,37.48c0-4.89,3.16-9.42,8.64-9.42,4.33,0,7.14,2.6,7.14,7.34V36l-.17.21-10.34-.35c0,5,2.46,6.64,5.77,6.64a10.2,10.2,0,0,0,4.5-1l.1.14A8.29,8.29,0,0,1,187.55,46C183,46,179.4,43.21,179.4,37.48Zm5.27-2.57,3.48-.17c1.58-.07,1.83-.32,1.83-1.66,0-2.74-1-3.83-2.29-3.83C186.18,29.25,184.85,31,184.67,34.91Z"/>
    <path fill="#13d7d5" d="M196.73,44.44l.84-.18c.64-.14.85-.24,1.06-.52V33.82a1.61,1.61,0,0,0-.78-1.65L196.38,31v-.35L203.69,28h.21l.18,5.31c1.44-3.52,2.67-5.24,4.53-5.24,1.62,0,2.22,1.33,2.22,2.77a9.27,9.27,0,0,1-.85,3.66l-2.07-1.27c-1.13-.66-1.48-.87-1.76-.87s-.7.28-1.86,1.75v9.43c.17.31.42.38,1.19.56l1.34.31v1H196.73v-1Z"/>
    <path fill="#000042" d="M32.22,64.43A32.22,32.22,0,1,0,0,32.22,32.21,32.21,0,0,0,32.22,64.43"/>
    <rect fill="#13d7d5" x="20.03" y="15.76" width="11.57" height="34.25"/>
    <path fill="#13d7d5" d="M41.85,30.15a7.23,7.23,0,1,0-7.23-7.23,7.23,7.23,0,0,0,7.23,7.23"/>
  </g>
</svg>