<?xml version="1.0" encoding="UTF-8"?>
<svg width="20px" height="20px" viewBox="0 0 20 20" version="1.1" xmlns="http://www.w3.org/2000/svg" xmlns:xlink="http://www.w3.org/1999/xlink">
    <!-- Generator: Sketch 52.5 (67469) - http://www.bohemiancoding.com/sketch -->
    <title>ic_activity</title>
    <desc>Created with Sketch.</desc>
    <g id="futiure_screens" stroke="none" stroke-width="1" fill="none" fill-rule="evenodd">
        <g id="ic_activity">
            <path d="M17.5,0 L2.5,0 C1.125,0 0,1.125 0,2.5 L0,17.5 C0,18.875 1.125,20 2.5,20 L17.5,20 C18.875,20 20,18.875 20,17.5 L20,2.5 C20,1.125 18.875,0 17.5,0" id="Fill-1" fill="currentColor"></path>
            <path d="M10,7.333 L10,10.667 L12.854,12.36 L13.333,11.554 L11,10.167 L11,7.333 L10,7.333 Z M10.667,4 C7.354,4 4.667,6.687 4.667,10 L2.667,10 L5.26,12.594 L5.307,12.687 L8,10 L6,10 C6,7.42 8.086,5.333 10.667,5.333 C13.247,5.333 15.333,7.42 15.333,10 C15.333,12.58 13.247,14.667 10.667,14.667 C9.38,14.667 8.213,14.14 7.374,13.293 L6.427,14.24 C7.513,15.327 9.007,16 10.667,16 C13.98,16 16.667,13.313 16.667,10 C16.667,6.687 13.98,4 10.667,4 Z" id="Fill-3" fill="#FFFFFF"></path>
        </g>
    </g>
</svg>
